<svg xmlns="http://www.w3.org/2000/svg" viewBox="3337 -3730.64 78.546 72">
  <defs>
    <style>
      .cls-1 {
        fill: #3d3d3d;
      }
    </style>
  </defs>
  <g id="Symbol_5_1" data-name="Symbol 5 – 1" transform="translate(3089 -3800)">
    <g id="Group_64" data-name="Group 64" transform="translate(248 69.36)">
      <path id="Path_25" data-name="Path 25" class="cls-1" d="M78.218,31.807a1.7,1.7,0,0,0-1.309-.655H14.727l-1.636-8.509c0-.655-.982-1.309-1.636-1.309H1.636a1.636,1.636,0,1,0,0,3.273h8.509L18,64.534A11.531,11.531,0,0,0,29.127,73.7H66.764a1.636,1.636,0,0,0,0-3.273H29.455a7.545,7.545,0,0,1-6.546-3.6l47.782-6.545A1.408,1.408,0,0,0,72,58.97l6.546-26.182A1.616,1.616,0,0,0,78.218,31.807ZM69.055,57.334,21.273,63.552,15.382,34.1H74.618Z" transform="translate(0 -21.334)"/>
    </g>
    <g id="Group_66" data-name="Group 66" transform="translate(267.636 124.996)">
      <path id="Path_26" data-name="Path 26" class="cls-1" d="M136.182,384a8.182,8.182,0,1,0,8.182,8.182A8.1,8.1,0,0,0,136.182,384Zm0,13.091a4.909,4.909,0,1,1,4.909-4.909A5.033,5.033,0,0,1,136.182,397.091Z" transform="translate(-128 -384)"/>
    </g>
    <g id="Group_68" data-name="Group 68" transform="translate(300.364 124.996)">
      <path id="Path_27" data-name="Path 27" class="cls-1" d="M349.516,384a8.182,8.182,0,1,0,8.182,8.182A8.1,8.1,0,0,0,349.516,384Zm0,13.091a4.909,4.909,0,1,1,4.909-4.909A5.033,5.033,0,0,1,349.516,397.091Z" transform="translate(-341.334 -384)"/>
    </g>
  </g>
</svg>
