<svg xmlns="http://www.w3.org/2000/svg" viewBox="4069 -3731.875 113.822 72">
  <defs>
    <style>
      .cls-1 {
        fill: #3d3d3d;
      }
    </style>
  </defs>
  <g id="Group_74" data-name="Group 74" transform="translate(4069 -3731.875)">
    <path id="Path_30" data-name="Path 30" class="cls-1" d="M105.854,124.585l-2.948-11.79a1.783,1.783,0,0,0,1.411-1.743v-1.9a7.494,7.494,0,0,0-7.485-7.485H83.406V97.745a3.687,3.687,0,0,0-3.683-3.683H11.287A3.687,3.687,0,0,0,7.6,97.745v32.317a1.782,1.782,0,1,0,3.565,0V97.745a.119.119,0,0,1,.119-.119H79.723a.119.119,0,0,1,.119.119v32.318a1.782,1.782,0,1,0,3.565,0v-2.02h21.033a5.832,5.832,0,0,1,5.538,4.04h-5.542a1.782,1.782,0,0,0-1.782,1.782v3.8a5.59,5.59,0,0,0,5.584,5.584h2.02v7.842H105.6a11.284,11.284,0,0,0-21.334,0h-.858V137.666a1.782,1.782,0,1,0-3.565,0v13.425H42.865a11.284,11.284,0,0,0-21.334,0H11.287a.119.119,0,0,1-.119-.119v-3.921h7.723a1.782,1.782,0,1,0,0-3.564H1.782a1.782,1.782,0,1,0,0,3.564H7.6v3.921a3.687,3.687,0,0,0,3.683,3.683h9.627c0,.04,0,.079,0,.119a11.287,11.287,0,0,0,22.574,0c0-.04,0-.079,0-.119H83.647c0,.04,0,.079,0,.119a11.287,11.287,0,0,0,22.574,0c0-.04,0-.079,0-.119h5.825a1.782,1.782,0,0,0,1.782-1.782v-19.01A9.4,9.4,0,0,0,105.854,124.585ZM83.406,105.231H96.832a3.925,3.925,0,0,1,3.921,3.921v.119H83.406Zm0,19.248V112.834H99.243l2.911,11.644ZM32.2,162.5a7.723,7.723,0,1,1,7.723-7.723A7.731,7.731,0,0,1,32.2,162.5Zm62.733,0a7.723,7.723,0,1,1,7.723-7.723A7.731,7.731,0,0,1,94.931,162.5Zm15.327-22.812h-2.02a2.022,2.022,0,0,1-2.02-2.02v-2.02h4.04v4.04Z" transform="translate(0 -94.062)"/>
  </g>
</svg>
