<svg xmlns="http://www.w3.org/2000/svg" viewBox="3829 -693 22.211 20">
  <defs>
    <style>
      .cls-1 {
        fill: #3d3d3d;
        opacity: 0.87;
      }
    </style>
  </defs>
  <g id="_133973-1" data-name="133973-1" transform="translate(3829 -707.927)">
    <path id="Path_42" data-name="Path 42" class="cls-1" d="M21.735,17.792H4.125a.452.452,0,0,0-.1.02l-.716-2.378a.524.524,0,0,0-.037-.069.472.472,0,0,0-.468-.438h0l-2.33.01a.476.476,0,0,0,0,.952h0l1.974-.009L7.008,31a2.259,2.259,0,1,0,3.585.752h6.578a2.258,2.258,0,1,0,.789-.952H9.8a2.185,2.185,0,0,0-1.949-.284l-.68-2.255,11.991-.01a.471.471,0,0,0,.446-.327.451.451,0,0,0,.043-.093l2.538-9.36a.464.464,0,0,0,.011-.177c0-.01.006-.018.006-.028A.475.475,0,0,0,21.735,17.792Zm-2.5,13.565a1.309,1.309,0,1,1-1.309,1.309A1.31,1.31,0,0,1,19.237,31.357Zm-10.709,0a1.309,1.309,0,1,1-1.309,1.309A1.31,1.31,0,0,1,8.528,31.357ZM18.814,27.3l-11.924.01L4.308,18.745H21.134Z" transform="translate(0 0)"/>
  </g>
</svg>
