<svg xmlns="http://www.w3.org/2000/svg" viewBox="3715 -3733 62.46 72">
  <defs>
    <style>
      .cls-1 {
        fill: #3d3d3d;
      }
    </style>
  </defs>
  <g id="Group_70" data-name="Group 70" transform="translate(3715 -3733)">
    <path id="Path_28" data-name="Path 28" class="cls-1" d="M82.082,12.4,60.1.5A4.636,4.636,0,0,0,54.02,2.322L41.161,26.214H25.523a3.523,3.523,0,0,0-3.562,3.562V68.438A3.523,3.523,0,0,0,25.523,72H75.479a3.523,3.523,0,0,0,3.562-3.562V59.4h1.477a1.372,1.372,0,0,0,1.39-1.39V47.674a1.372,1.372,0,0,0-1.39-1.39H79.041V36.119a3.625,3.625,0,0,0-2.78-3.475l7.645-14.161A4.554,4.554,0,0,0,82.082,12.4ZM66.443,7.1,52.716,32.556h-3.91L63.489,5.537Zm-9.9-3.475a1.709,1.709,0,0,1,2.259-.7L60.97,4.147,45.679,32.556H40.9ZM24.654,29.689a.838.838,0,0,1,.782-.7H39.6L37.686,32.47H25.436a2.4,2.4,0,0,0-.782.087V29.689Zm51.52,38.748a.779.779,0,0,1-.782.782H25.436a.779.779,0,0,1-.782-.782V36.119a.779.779,0,0,1,.782-.782H75.305a.779.779,0,0,1,.782.782V46.283h-5.3a4.171,4.171,0,0,0-4.17,4.17v4.778a4.171,4.171,0,0,0,4.17,4.17h5.387v9.035Zm2.78-19.374h.087v7.559H70.787a1.372,1.372,0,0,1-1.39-1.39V50.454a1.372,1.372,0,0,1,1.39-1.39Zm2.433-31.972-8.34,15.465h-17.2L68.876,8.491,80.692,14.92A1.52,1.52,0,0,1,81.387,17.092Z" transform="translate(-21.961 0)"/>
  </g>
</svg>
