<svg xmlns="http://www.w3.org/2000/svg" viewBox="3666 -694 22 22">
  <defs>
    <style>
      .cls-1 {
        fill: #3d3d3d;
      }
    </style>
  </defs>
  <g id="phone-call" transform="translate(3665.999 -694)">
    <path id="Path_24" data-name="Path 24" class="cls-1" d="M21.986,18.107a1.688,1.688,0,0,0-.837-1.251l-5.427-3.125A1.7,1.7,0,0,0,13.67,14L12.6,15.072a.783.783,0,0,1-1.047.058,30.9,30.9,0,0,1-2.466-2.218A30.908,30.908,0,0,1,6.87,10.446.783.783,0,0,1,6.929,9.4L8,8.33a1.7,1.7,0,0,0,.271-2.051L5.144.852A1.7,1.7,0,0,0,2.468.5L.857,2.109C-.267,3.233-.285,5.29.806,7.9a25.575,25.575,0,0,0,5.515,7.779A25.574,25.574,0,0,0,14.1,21.194,9.072,9.072,0,0,0,17.507,22a3.249,3.249,0,0,0,2.384-.857L21.5,19.532a1.688,1.688,0,0,0,.483-1.425Zm-6.62-3.758,5.427,3.125a.987.987,0,0,1,.3,1.442L13.881,14.8l.293-.293a.989.989,0,0,1,1.191-.158ZM3.8.721a.98.98,0,0,1,.726.486L7.651,6.635a.989.989,0,0,1-.158,1.191L7.225,8.1,3.085.906A.976.976,0,0,1,3.668.712,1.006,1.006,0,0,1,3.8.721ZM19.387,20.639c-.893.893-2.72.856-5.012-.1a24.855,24.855,0,0,1-7.55-5.361,24.855,24.855,0,0,1-5.361-7.55c-.959-2.292-1-4.119-.1-5.012l1.2-1.2L6.7,8.617l-.278.278a1.5,1.5,0,0,0-.11,2,31.62,31.62,0,0,0,2.27,2.523,31.637,31.637,0,0,0,2.523,2.27,1.5,1.5,0,0,0,2-.11l.254-.254,7.223,4.122-1.195,1.195Z" transform="translate(0)"/>
  </g>
</svg>
