<svg viewBox="0 0 44 40" style="background-color:#ffffff00" xmlns="http://www.w3.org/2000/svg" width="44" height="40"><g><path d="M11.554 11.21l27.59-.01c1.023 0 1.03.83.78 1.856L37.47 20.83c-.25 1.026-1.253 1.875-2.278 1.87l-20.115.02-3.52-11.51zM14.8 34.583c0-1.016.632-1.888 1.54-2.264h1.994c.907.376 1.542 1.248 1.542 2.264 0 1.36-1.137 2.462-2.54 2.462-1.4 0-2.537-1.102-2.537-2.462zm7.674.155c0-.87-.222-1.693-.61-2.42h8.82c-.39.727-.612 1.55-.612 2.42 0 2.904 2.456 5.26 5.487 5.26 3.03 0 5.486-2.355 5.486-5.26 0-2.726-2.157-5.027-4.925-5.3v2.88h-.56c1.397 0 2.53 1.075 2.53 2.4s-1.133 2.4-2.53 2.4c-1.4 0-2.534-1.075-2.534-2.4s1.134-2.4 2.533-2.4h.56v-2.88H17.134l-1.047-3.42 20.663.016c1.577 0 3.168-1.166 3.55-2.605l3.617-12.243c.382-1.44-.587-2.605-2.166-2.605h-31L8.61 1.6H1.542c-.483 0-.875.34-.875.758V4.48h5.75l7.773 25.702c-1.612.928-2.69 2.63-2.69 4.557 0 2.904 2.457 5.26 5.487 5.26 3.03 0 5.487-2.355 5.487-5.26z" fill="#848b14"/><path d="M10.887 9.61l27.59-.01c1.024 0 1.03.83.782 1.856L36.8 19.23c-.248 1.026-1.252 1.875-2.277 1.87l-20.115.02-3.52-11.51zm3.245 23.374c0-1.016.634-1.888 1.54-2.264h1.995c.907.376 1.543 1.248 1.543 2.264 0 1.36-1.137 2.462-2.54 2.462-1.4 0-2.538-1.102-2.538-2.462zm7.675.155c0-.87-.222-1.693-.61-2.42h8.82c-.39.727-.612 1.55-.612 2.42 0 2.904 2.456 5.26 5.487 5.26 3.03 0 5.487-2.355 5.487-5.26 0-2.726-2.158-5.027-4.925-5.3v2.88h-.563c1.398 0 2.532 1.075 2.532 2.4s-1.134 2.4-2.532 2.4c-1.4 0-2.533-1.075-2.533-2.4s1.133-2.4 2.532-2.4h.563v-2.88H16.467l-1.048-3.42 20.662.016c1.58 0 3.17-1.166 3.552-2.605L43.25 9.588c.383-1.44-.587-2.605-2.165-2.605h-31L7.942 0H.875C.392 0 0 .34 0 .758V2.88h5.75l7.774 25.702c-1.612.928-2.69 2.63-2.69 4.557 0 2.904 2.456 5.26 5.486 5.26s5.487-2.355 5.487-5.26z" fill="#fff"/></g></svg>