<svg xmlns="http://www.w3.org/2000/svg" viewBox="3409 -3664 675 2">
  <defs>
    <style>
      .cls-1 {
        opacity: 0.65;
      }
    </style>
  </defs>
  <g id="Symbol_7_1" data-name="Symbol 7 – 1" transform="translate(3089 -3800)">
    <rect id="Rectangle_70" data-name="Rectangle 70" class="cls-1" width="15" height="2" transform="translate(320 136)"/>
    <rect id="Rectangle_70-2" data-name="Rectangle 70" class="cls-1" width="15" height="2" transform="translate(350 136)"/>
    <rect id="Rectangle_70-3" data-name="Rectangle 70" class="cls-1" width="15" height="2" transform="translate(380 136)"/>
    <rect id="Rectangle_70-4" data-name="Rectangle 70" class="cls-1" width="15" height="2" transform="translate(410 136)"/>
    <rect id="Rectangle_70-5" data-name="Rectangle 70" class="cls-1" width="15" height="2" transform="translate(440 136)"/>
    <rect id="Rectangle_70-6" data-name="Rectangle 70" class="cls-1" width="15" height="2" transform="translate(470 136)"/>
    <rect id="Rectangle_70-7" data-name="Rectangle 70" class="cls-1" width="15" height="2" transform="translate(500 136)"/>
    <rect id="Rectangle_70-8" data-name="Rectangle 70" class="cls-1" width="15" height="2" transform="translate(530 136)"/>
    <rect id="Rectangle_70-9" data-name="Rectangle 70" class="cls-1" width="15" height="2" transform="translate(560 136)"/>
    <rect id="Rectangle_70-10" data-name="Rectangle 70" class="cls-1" width="15" height="2" transform="translate(590 136)"/>
    <rect id="Rectangle_70-11" data-name="Rectangle 70" class="cls-1" width="15" height="2" transform="translate(620 136)"/>
    <rect id="Rectangle_70-12" data-name="Rectangle 70" class="cls-1" width="15" height="2" transform="translate(650 136)"/>
    <rect id="Rectangle_70-13" data-name="Rectangle 70" class="cls-1" width="15" height="2" transform="translate(680 136)"/>
    <rect id="Rectangle_70-14" data-name="Rectangle 70" class="cls-1" width="15" height="2" transform="translate(710 136)"/>
    <rect id="Rectangle_70-15" data-name="Rectangle 70" class="cls-1" width="15" height="2" transform="translate(740 136)"/>
    <rect id="Rectangle_70-16" data-name="Rectangle 70" class="cls-1" width="15" height="2" transform="translate(770 136)"/>
    <rect id="Rectangle_70-17" data-name="Rectangle 70" class="cls-1" width="15" height="2" transform="translate(800 136)"/>
    <rect id="Rectangle_70-18" data-name="Rectangle 70" class="cls-1" width="15" height="2" transform="translate(830 136)"/>
    <rect id="Rectangle_70-19" data-name="Rectangle 70" class="cls-1" width="15" height="2" transform="translate(860 136)"/>
    <rect id="Rectangle_70-20" data-name="Rectangle 70" class="cls-1" width="15" height="2" transform="translate(890 136)"/>
    <rect id="Rectangle_70-21" data-name="Rectangle 70" class="cls-1" width="15" height="2" transform="translate(920 136)"/>
    <rect id="Rectangle_70-22" data-name="Rectangle 70" class="cls-1" width="15" height="2" transform="translate(950 136)"/>
    <rect id="Rectangle_70-23" data-name="Rectangle 70" class="cls-1" width="15" height="2" transform="translate(980 136)"/>
  </g>
</svg>
