<svg xmlns="http://www.w3.org/2000/svg" viewBox="3862 -731 10 10">
  <defs>
    <style>
      .cls-1 {
        fill: #3d3d3d;
        opacity: 0.5;
      }
    </style>
  </defs>
  <path id="ic_perm_identity_24px" class="cls-1" d="M9,5.188A1.313,1.313,0,1,1,7.687,6.5,1.312,1.312,0,0,1,9,5.188m0,5.625c1.856,0,3.813.913,3.813,1.313v.688H5.188v-.688c0-.4,1.956-1.313,3.813-1.313M9,4a2.5,2.5,0,1,0,2.5,2.5A2.5,2.5,0,0,0,9,4ZM9,9.625c-1.669,0-5,.838-5,2.5V14H14V12.125C14,10.463,10.669,9.625,9,9.625Z" transform="translate(3858 -735)"/>
</svg>
